<?xml version="1.0" encoding="utf-8"?>
<!-- Generator: Adobe Illustrator 24.2.0, SVG Export Plug-In . SVG Version: 6.00 Build 0)  -->
<svg version="1.1" id="Layer_1" xmlns="http://www.w3.org/2000/svg" xmlns:xlink="http://www.w3.org/1999/xlink" x="0px" y="0px"
	 width="1728px" height="1296px" viewBox="0 0 1728 1296" style="enable-background:new 0 0 1728 1296;" xml:space="preserve">
<style type="text/css">
	.st0{display:none;fill:#808080;}
	.st1{display:none;}
	.st2{display:inline;fill:none;stroke:#FFFFFF;stroke-width:19;stroke-miterlimit:10;}
	.st3{display:inline;}
	.st4{fill:#FFFFFF;}
</style>
<rect class="st0" width="1728" height="1296"/>
<g class="st1">
	<circle class="st2" cx="1343" cy="943" r="247.8"/>
	<g class="st3">
		<polygon class="st4" points="1496.7,1077.1 1464.4,1090 1351.2,807 1336.8,807 1216.8,1086.9 1184.8,1073.2 1322.3,752.5 
			1344.7,762.1 1367.1,753.1 		"/>
	</g>
	<g class="st3">
		<polygon class="st4" points="1441.7,1063.6 1409.4,1076.5 1403,1060.6 1343.2,911.1 1278.7,1060.6 1272.2,1075.8 1240.2,1062 
			1249.1,1041.3 1338.2,833.5 1349.9,833.5 1440.7,1060.6 1440.5,1060.6 		"/>
	</g>
</g>
<g>
	<g>
		<g>
			<polygon class="st4" points="672.6,639.4 651.2,648 576.2,460.6 566.7,460.6 487.3,645.9 466.1,636.8 557.1,424.5 571.9,430.9 
				586.8,425 			"/>
		</g>
		<g>
			<polygon class="st4" points="636.1,630.5 614.7,639 610.5,628.5 570.9,529.5 528.2,628.5 523.9,638.6 502.7,629.5 508.6,615.8 
				567.6,478.2 575.3,478.2 635.5,628.5 635.3,628.5 			"/>
		</g>
	</g>
	<g>
		<path class="st4" d="M189.4,607.1c12.8,7.8,31.4,14.4,51,14.4c29.1,0,46.1-15.4,46.1-37.6c0-20.6-11.8-32.4-41.5-43.8
			c-36-12.8-58.2-31.4-58.2-62.5c0-34.3,28.5-59.8,71.3-59.8c22.6,0,38.9,5.2,48.7,10.8l-7.8,23.2c-7.2-3.9-21.9-10.5-41.9-10.5
			c-30.1,0-41.5,18-41.5,33c0,20.6,13.4,30.7,43.8,42.5c37.3,14.4,56.3,32.4,56.3,64.8c0,34-25.2,63.4-77.2,63.4
			c-21.3,0-44.5-6.2-56.3-14.1L189.4,607.1z"/>
		<path class="st4" d="M396.4,445.6h-67v-24.2h163.2v24.2h-67.4v196.2h-28.8V445.6z"/>
	</g>
	<g>
		<path class="st4" d="M841.1,634.2c-10.5,5.2-31.4,10.5-58.2,10.5c-62.1,0-108.9-39.2-108.9-111.5c0-69,46.8-115.8,115.1-115.8
			c27.5,0,44.8,5.9,52.3,9.8l-6.9,23.2c-10.8-5.2-26.2-9.2-44.5-9.2c-51.7,0-86,33-86,90.9c0,54,31.1,88.6,84.7,88.6
			c17.3,0,35-3.6,46.4-9.2L841.1,634.2z"/>
		<path class="st4" d="M876.7,421h28.5v106.3h1c5.9-8.5,11.8-16.4,17.3-23.5l67.4-82.7h35.3l-79.8,93.5l86,126.9h-33.7l-72.6-108.3
			l-20.9,24.2v84h-28.5V421z"/>
	</g>
	<g>
		<path class="st4" d="M221.1,160.3c12.4-2.6,32.1-4.6,52-4.6c28.5,0,46.8,4.9,60.5,16c11.4,8.5,18.3,21.6,18.3,38.9
			c0,21.3-14.1,39.9-37.3,48.4v0.7c20.9,5.2,45.5,22.6,45.5,55.3c0,19-7.5,33.4-18.6,44.2c-15.4,14.1-40.2,20.6-76.2,20.6
			c-19.6,0-34.7-1.3-44.2-2.6V160.3z M249.5,250.6h25.8c30.1,0,47.7-15.7,47.7-37c0-25.8-19.6-36-48.4-36c-13.1,0-20.6,1-25.2,2
			V250.6z M249.5,356.2c5.6,1,13.7,1.3,23.9,1.3c29.4,0,56.6-10.8,56.6-42.8c0-30.1-25.8-42.5-56.9-42.5h-23.5V356.2z"/>
		<path class="st4" d="M586.7,265.3c0,75.9-46.1,116.1-102.4,116.1c-58.2,0-99.1-45.1-99.1-111.8c0-70,43.5-115.8,102.4-115.8
			C547.8,153.8,586.7,199.9,586.7,265.3z M415.7,268.9c0,47.1,25.5,89.3,70.3,89.3c45.1,0,70.6-41.5,70.6-91.6
			c0-43.8-22.9-89.6-70.3-89.6C439.2,177,415.7,220.5,415.7,268.9z"/>
		<path class="st4" d="M812,265.3c0,75.9-46.1,116.1-102.4,116.1c-58.2,0-99.1-45.1-99.1-111.8c0-70,43.5-115.8,102.4-115.8
			C773.1,153.8,812,199.9,812,265.3z M641,268.9c0,47.1,25.5,89.3,70.3,89.3c45.1,0,70.6-41.5,70.6-91.6c0-43.8-22.9-89.6-70.3-89.6
			C664.5,177,641,220.5,641,268.9z"/>
		<path class="st4" d="M849,157.4h28.5v106.3h1c5.9-8.5,11.8-16.4,17.3-23.5l67.4-82.7h35.3l-79.8,93.5l86,126.9H971l-72.6-108.3
			l-20.9,24.2v84H849V157.4z"/>
	</g>
</g>
<g>
</g>
<g>
</g>
<g>
</g>
<g>
</g>
<g>
</g>
</svg>
