<svg xmlns="http://www.w3.org/2000/svg" width="850.18" height="494.2" viewBox="0 0 850.18 494.2"><defs><style>.a{fill:#2d68c4;}</style></defs><polygon class="a" points="490.34 485.64 468.93 494.2 393.98 306.83 384.43 306.83 305.03 492.12 283.84 483.04 374.84 270.71 389.7 277.08 404.54 271.15 490.34 485.64"/><polygon class="a" points="453.9 476.68 432.49 485.24 428.28 474.72 388.69 375.74 346 474.72 341.65 484.8 320.49 475.67 326.39 461.96 385.35 324.38 393.1 324.38 453.24 474.72 453.11 474.72 453.9 476.68"/><path d="M189.42,607.12a101,101,0,0,0,51,14.39c29.11,0,46.11-15.38,46.11-37.61,0-20.61-11.77-32.38-41.53-43.83-36-12.75-58.22-31.39-58.22-62.46,0-34.34,28.46-59.85,71.3-59.85,22.57,0,38.92,5.23,48.73,10.79L299,451.77a87.83,87.83,0,0,0-41.86-10.46c-30.09,0-41.54,18-41.54,33,0,20.6,13.41,30.74,43.83,42.51,37.28,14.39,56.25,32.38,56.25,64.76,0,34-25.18,63.44-77.18,63.44-21.26,0-44.48-6.21-56.25-14.06Z" transform="translate(-182.23 -153.8)"/><path d="M396.44,445.56h-67v-24.2H492.59v24.2H425.22V641.78H396.44Z" transform="translate(-182.23 -153.8)"/><path d="M841.09,634.22c-10.47,5.24-31.4,10.47-58.21,10.47C720.74,644.69,674,605.44,674,533.17c0-69,46.77-115.78,115.12-115.78,27.47,0,44.8,5.89,52.33,9.81l-6.87,23.22c-10.79-5.23-26.17-9.15-44.48-9.15-51.67,0-86,33-86,90.92,0,54,31.07,88.62,84.7,88.62,17.34,0,35-3.59,46.44-9.15Z" transform="translate(-182.23 -153.8)"/><path d="M876.74,421h28.45V527.28h1c5.89-8.5,11.77-16.35,17.33-23.55L990.87,421h35.32L946.4,514.52l86,126.9H998.72l-72.6-108.25-20.93,24.2v84H876.74Z" transform="translate(-182.23 -153.8)"/><path d="M221.08,160.34c12.42-2.61,32-4.58,52-4.58,28.45,0,46.76,4.91,60.5,16,11.44,8.5,18.31,21.58,18.31,38.92,0,21.25-14.06,39.9-37.28,48.4v.65c20.93,5.24,45.46,22.57,45.46,55.27a59.41,59.41,0,0,1-18.64,44.15c-15.37,14.07-40.23,20.61-76.2,20.61a332,332,0,0,1-44.15-2.62Zm28.45,90.27h25.83c30.09,0,47.75-15.7,47.75-37,0-25.84-19.62-36-48.4-36-13.08,0-20.6,1-25.18,2Zm0,105.63c5.56,1,13.73,1.31,23.87,1.31,29.44,0,56.58-10.79,56.58-42.84,0-30.09-25.84-42.52-56.9-42.52H249.53Z" transform="translate(-182.23 -153.8)"/><path d="M586.71,265.32c0,75.88-46.11,116.1-102.36,116.1-58.22,0-99.1-45.13-99.1-111.85,0-70,43.5-115.77,102.37-115.77C547.79,153.8,586.71,199.91,586.71,265.32Zm-171,3.6c0,47.09,25.51,89.28,70.31,89.28,45.13,0,70.64-41.53,70.64-91.57,0-43.82-22.89-89.61-70.31-89.61C439.21,177,415.67,220.52,415.67,268.92Z" transform="translate(-182.23 -153.8)"/><path d="M812,265.32c0,75.88-46.11,116.1-102.36,116.1-58.21,0-99.09-45.13-99.09-111.85,0-70,43.49-115.77,102.36-115.77C773.13,153.8,812,199.91,812,265.32Zm-171,3.6c0,47.09,25.51,89.28,70.32,89.28,45.13,0,70.64-41.53,70.64-91.57,0-43.82-22.9-89.61-70.32-89.61C664.55,177,641,220.52,641,268.92Z" transform="translate(-182.23 -153.8)"/><path d="M849,157.4h28.46V263.69h1c5.88-8.51,11.77-16.35,17.33-23.55l67.37-82.74h35.32l-79.8,93.53,86,126.9H971l-72.6-108.26-20.93,24.21v84.05H849Z" transform="translate(-182.23 -153.8)"/></svg>